<svg id="visual" viewBox="0 0 900 450" width="900" height="450" xmlns="http://www.w3.org/2000/svg" xmlns:xlink="http://www.w3.org/1999/xlink" version="1.1"><path d="M0 37L11.5 34C23 31 46 25 69 22C92 19 115 19 138.2 22C161.3 25 184.7 31 207.8 34C231 37 254 37 277 34.8C300 32.7 323 28.3 346 26.2C369 24 392 24 415.2 26.2C438.3 28.3 461.7 32.7 484.8 32.7C508 32.7 531 28.3 554 28.3C577 28.3 600 32.7 623 32.7C646 32.7 669 28.3 692.2 26.2C715.3 24 738.7 24 761.8 25.5C785 27 808 30 831 32.2C854 34.3 877 35.7 888.5 36.3L900 37L900 0L888.5 0C877 0 854 0 831 0C808 0 785 0 761.8 0C738.7 0 715.3 0 692.2 0C669 0 646 0 623 0C600 0 577 0 554 0C531 0 508 0 484.8 0C461.7 0 438.3 0 415.2 0C392 0 369 0 346 0C323 0 300 0 277 0C254 0 231 0 207.8 0C184.7 0 161.3 0 138.2 0C115 0 92 0 69 0C46 0 23 0 11.5 0L0 0Z" fill="#cbe3fb"></path><path d="M0 51L11.5 50.2C23 49.3 46 47.7 69 46.2C92 44.7 115 43.3 138.2 46.3C161.3 49.3 184.7 56.7 207.8 58.2C231 59.7 254 55.3 277 52.3C300 49.3 323 47.7 346 46.8C369 46 392 46 415.2 47.5C438.3 49 461.7 52 484.8 51.3C508 50.7 531 46.3 554 47.8C577 49.3 600 56.7 623 55.8C646 55 669 46 692.2 42.3C715.3 38.7 738.7 40.3 761.8 44.2C785 48 808 54 831 56.2C854 58.3 877 56.7 888.5 55.8L900 55L900 35L888.5 34.3C877 33.7 854 32.3 831 30.2C808 28 785 25 761.8 23.5C738.7 22 715.3 22 692.2 24.2C669 26.3 646 30.7 623 30.7C600 30.7 577 26.3 554 26.3C531 26.3 508 30.7 484.8 30.7C461.7 30.7 438.3 26.3 415.2 24.2C392 22 369 22 346 24.2C323 26.3 300 30.7 277 32.8C254 35 231 35 207.8 32C184.7 29 161.3 23 138.2 20C115 17 92 17 69 20C46 23 23 29 11.5 32L0 35Z" fill="#b5d0ed"></path><path d="M0 78L11.5 77.2C23 76.3 46 74.7 69 75.3C92 76 115 79 138.2 84.3C161.3 89.7 184.7 97.3 207.8 98.8C231 100.3 254 95.7 277 90.3C300 85 323 79 346 78.3C369 77.7 392 82.3 415.2 88.3C438.3 94.3 461.7 101.7 484.8 99.3C508 97 531 85 554 86.5C577 88 600 103 623 102.3C646 101.7 669 85.3 692.2 78.7C715.3 72 738.7 75 761.8 82.5C785 90 808 102 831 106.5C854 111 877 108 888.5 106.5L900 105L900 53L888.5 53.8C877 54.7 854 56.3 831 54.2C808 52 785 46 761.8 42.2C738.7 38.3 715.3 36.7 692.2 40.3C669 44 646 53 623 53.8C600 54.7 577 47.3 554 45.8C531 44.3 508 48.7 484.8 49.3C461.7 50 438.3 47 415.2 45.5C392 44 369 44 346 44.8C323 45.7 300 47.3 277 50.3C254 53.3 231 57.7 207.8 56.2C184.7 54.7 161.3 47.3 138.2 44.3C115 41.3 92 42.7 69 44.2C46 45.7 23 47.3 11.5 48.2L0 49Z" fill="#a0bddf"></path><path d="M0 105L11.5 102.7C23 100.3 46 95.7 69 95.7C92 95.7 115 100.3 138.2 107.8C161.3 115.3 184.7 125.7 207.8 128.7C231 131.7 254 127.3 277 119.2C300 111 323 99 346 98.2C369 97.3 392 107.7 415.2 115.8C438.3 124 461.7 130 484.8 125.5C508 121 531 106 554 106C577 106 600 121 623 121C646 121 669 106 692.2 100C715.3 94 738.7 97 761.8 106C785 115 808 130 831 136C854 142 877 139 888.5 137.5L900 136L900 103L888.5 104.5C877 106 854 109 831 104.5C808 100 785 88 761.8 80.5C738.7 73 715.3 70 692.2 76.7C669 83.3 646 99.7 623 100.3C600 101 577 86 554 84.5C531 83 508 95 484.8 97.3C461.7 99.7 438.3 92.3 415.2 86.3C392 80.3 369 75.7 346 76.3C323 77 300 83 277 88.3C254 93.7 231 98.3 207.8 96.8C184.7 95.3 161.3 87.7 138.2 82.3C115 77 92 74 69 73.3C46 72.7 23 74.3 11.5 75.2L0 76Z" fill="#8babd1"></path><path d="M0 141L11.5 138C23 135 46 129 69 129.7C92 130.3 115 137.7 138.2 145.8C161.3 154 184.7 163 207.8 166C231 169 254 166 277 157.8C300 149.7 323 136.3 346 136.3C369 136.3 392 149.7 415.2 156.3C438.3 163 461.7 163 484.8 156.3C508 149.7 531 136.3 554 134.8C577 133.3 600 143.7 623 144.3C646 145 669 136 692.2 133C715.3 130 738.7 133 761.8 142.8C785 152.7 808 169.3 831 172.3C854 175.3 877 164.7 888.5 159.3L900 154L900 134L888.5 135.5C877 137 854 140 831 134C808 128 785 113 761.8 104C738.7 95 715.3 92 692.2 98C669 104 646 119 623 119C600 119 577 104 554 104C531 104 508 119 484.8 123.5C461.7 128 438.3 122 415.2 113.8C392 105.7 369 95.3 346 96.2C323 97 300 109 277 117.2C254 125.3 231 129.7 207.8 126.7C184.7 123.7 161.3 113.3 138.2 105.8C115 98.3 92 93.7 69 93.7C46 93.7 23 98.3 11.5 100.7L0 103Z" fill="#7798c4"></path><path d="M0 190L11.5 185.5C23 181 46 172 69 171.3C92 170.7 115 178.3 138.2 186.7C161.3 195 184.7 204 207.8 205.5C231 207 254 201 277 190.5C300 180 323 165 346 164.2C369 163.3 392 176.7 415.2 187.2C438.3 197.7 461.7 205.3 484.8 203.2C508 201 531 189 554 183.7C577 178.3 600 179.7 623 177.3C646 175 669 169 692.2 168.3C715.3 167.7 738.7 172.3 761.8 181.3C785 190.3 808 203.7 831 206.7C854 209.7 877 202.3 888.5 198.7L900 195L900 152L888.5 157.3C877 162.7 854 173.3 831 170.3C808 167.3 785 150.7 761.8 140.8C738.7 131 715.3 128 692.2 131C669 134 646 143 623 142.3C600 141.7 577 131.3 554 132.8C531 134.3 508 147.7 484.8 154.3C461.7 161 438.3 161 415.2 154.3C392 147.7 369 134.3 346 134.3C323 134.3 300 147.7 277 155.8C254 164 231 167 207.8 164C184.7 161 161.3 152 138.2 143.8C115 135.7 92 128.3 69 127.7C46 127 23 133 11.5 136L0 139Z" fill="#6386b6"></path><path d="M0 208L11.5 204.3C23 200.7 46 193.3 69 195.7C92 198 115 210 138.2 219.7C161.3 229.3 184.7 236.7 207.8 236.7C231 236.7 254 229.3 277 219.7C300 210 323 198 346 195C369 192 392 198 415.2 207.7C438.3 217.3 461.7 230.7 484.8 229.2C508 227.7 531 211.3 554 203.8C577 196.3 600 197.7 623 198.3C646 199 669 199 692.2 200.5C715.3 202 738.7 205 761.8 211.8C785 218.7 808 229.3 831 232.3C854 235.3 877 230.7 888.5 228.3L900 226L900 193L888.5 196.7C877 200.3 854 207.7 831 204.7C808 201.7 785 188.3 761.8 179.3C738.7 170.3 715.3 165.7 692.2 166.3C669 167 646 173 623 175.3C600 177.7 577 176.3 554 181.7C531 187 508 199 484.8 201.2C461.7 203.3 438.3 195.7 415.2 185.2C392 174.7 369 161.3 346 162.2C323 163 300 178 277 188.5C254 199 231 205 207.8 203.5C184.7 202 161.3 193 138.2 184.7C115 176.3 92 168.7 69 169.3C46 170 23 179 11.5 183.5L0 188Z" fill="#5074a9"></path><path d="M0 285L11.5 279C23 273 46 261 69 263.2C92 265.3 115 281.7 138.2 292.2C161.3 302.7 184.7 307.3 207.8 308.2C231 309 254 306 277 302.2C300 298.3 323 293.7 346 298.2C369 302.7 392 316.3 415.2 319.3C438.3 322.3 461.7 314.7 484.8 307.2C508 299.7 531 292.3 554 287.2C577 282 600 279 623 286.5C646 294 669 312 692.2 312.7C715.3 313.3 738.7 296.7 761.8 301.8C785 307 808 334 831 334.8C854 335.7 877 310.3 888.5 297.7L900 285L900 224L888.5 226.3C877 228.7 854 233.3 831 230.3C808 227.3 785 216.7 761.8 209.8C738.7 203 715.3 200 692.2 198.5C669 197 646 197 623 196.3C600 195.7 577 194.3 554 201.8C531 209.3 508 225.7 484.8 227.2C461.7 228.7 438.3 215.3 415.2 205.7C392 196 369 190 346 193C323 196 300 208 277 217.7C254 227.3 231 234.7 207.8 234.7C184.7 234.7 161.3 227.3 138.2 217.7C115 208 92 196 69 193.7C46 191.3 23 198.7 11.5 202.3L0 206Z" fill="#3d639b"></path><path d="M0 343L11.5 341.5C23 340 46 337 69 337.8C92 338.7 115 343.3 138.2 347.2C161.3 351 184.7 354 207.8 358.5C231 363 254 369 277 365.2C300 361.3 323 347.7 346 346.2C369 344.7 392 355.3 415.2 362.2C438.3 369 461.7 372 484.8 372C508 372 531 369 554 362.2C577 355.3 600 344.7 623 346.2C646 347.7 669 361.3 692.2 358.3C715.3 355.3 738.7 335.7 761.8 339.3C785 343 808 370 831 372.3C854 374.7 877 352.3 888.5 341.2L900 330L900 283L888.5 295.7C877 308.3 854 333.7 831 332.8C808 332 785 305 761.8 299.8C738.7 294.7 715.3 311.3 692.2 310.7C669 310 646 292 623 284.5C600 277 577 280 554 285.2C531 290.3 508 297.7 484.8 305.2C461.7 312.7 438.3 320.3 415.2 317.3C392 314.3 369 300.7 346 296.2C323 291.7 300 296.3 277 300.2C254 304 231 307 207.8 306.2C184.7 305.3 161.3 300.7 138.2 290.2C115 279.7 92 263.3 69 261.2C46 259 23 271 11.5 277L0 283Z" fill="#2a528e"></path><path d="M0 451L11.5 451C23 451 46 451 69 451C92 451 115 451 138.2 451C161.3 451 184.7 451 207.8 451C231 451 254 451 277 451C300 451 323 451 346 451C369 451 392 451 415.2 451C438.3 451 461.7 451 484.8 451C508 451 531 451 554 451C577 451 600 451 623 451C646 451 669 451 692.2 451C715.3 451 738.7 451 761.8 451C785 451 808 451 831 451C854 451 877 451 888.5 451L900 451L900 328L888.5 339.2C877 350.3 854 372.7 831 370.3C808 368 785 341 761.8 337.3C738.7 333.7 715.3 353.3 692.2 356.3C669 359.3 646 345.7 623 344.2C600 342.7 577 353.3 554 360.2C531 367 508 370 484.8 370C461.7 370 438.3 367 415.2 360.2C392 353.3 369 342.7 346 344.2C323 345.7 300 359.3 277 363.2C254 367 231 361 207.8 356.5C184.7 352 161.3 349 138.2 345.2C115 341.3 92 336.7 69 335.8C46 335 23 338 11.5 339.5L0 341Z" fill="#124180"></path></svg>